<?xml version="1.0" encoding="utf-8"?>
<!-- Generator: Adobe Illustrator 22.1.0, SVG Export Plug-In . SVG Version: 6.00 Build 0)  -->
<svg version="1.1" id="Layer_1" xmlns="http://www.w3.org/2000/svg" xmlns:xlink="http://www.w3.org/1999/xlink" x="0px" y="0px"
	 viewBox="0 0 275.3 285.8" style="enable-background:new 0 0 275.3 285.8;" xml:space="preserve">
<style type="text/css">
	.st0{fill:#FFFFFF;}
</style>
<g>
	<g>
		<g>
			<path class="st0" d="M220.1,163.6h-31.6l-34.2-59.2c-7.5,7.4-12.9,16.6-6.2,36.9l12.9,22.3H161l1,1.7l31.1,53.8
				c3.3,5.7,10.6,7.6,16.3,4.4c5.7-3.3,7.6-10.6,4.4-16.3l-11.4-19.8h17.8c6.6,0,11.9-5.3,11.9-11.9
				C232,169,226.7,163.6,220.1,163.6z"/>
		</g>
		<g>
			<path class="st0" d="M92.7,198.9l-11.9,20.6c-3.3,5.7-10.6,7.6-16.3,4.4l0,0c-5.7-3.3-7.6-10.6-4.4-16.3c0,0,8.5-17.1,10.1-17.5
				C71.8,189.8,91.2,191.2,92.7,198.9z"/>
		</g>
		<g>
			<path class="st0" d="M149.6,163.6h-36.6l50.5-87.4c3.3-5.7,1.3-13-4.4-16.3c-5.7-3.3-13-1.3-16.3,4.4L137,74.5L131,63.9
				c-3.3-5.7-10.6-7.6-16.3-4.4v0c-5.7,3.3-7.6,10.6-4.4,16.3l13,22.5l-37.7,65.3h-31c-6.6,0-11.9,5.3-11.9,11.9
				c0,6.6,5.3,11.9,11.9,11.9h105.8C170.2,184.5,161.7,165.7,149.6,163.6z"/>
		</g>
	</g>
	<g>
		<path class="st0" d="M215.9,284.7h-157c-32.6,0-59.1-26.5-59.1-59.1V57.8c0-32.6,26.5-59.1,59.1-59.1h157
			c32.6,0,59.1,26.5,59.1,59.1v167.8C274.9,258.2,248.4,284.7,215.9,284.7z M58.9,25.8c-17.6,0-32,14.3-32,32v167.8
			c0,17.6,14.3,32,32,32h157c17.6,0,32-14.3,32-32V57.8c0-17.6-14.3-32-32-32H58.9z"/>
	</g>
</g>
</svg>
