<?xml version="1.0" encoding="utf-8"?>
<!-- Generator: Adobe Illustrator 22.1.0, SVG Export Plug-In . SVG Version: 6.00 Build 0)  -->
<svg version="1.1" id="Layer_1" xmlns="http://www.w3.org/2000/svg" xmlns:xlink="http://www.w3.org/1999/xlink" x="0px" y="0px"
	 viewBox="0 0 288 288" style="enable-background:new 0 0 288 288;" xml:space="preserve">
<style type="text/css">
	.st0{enable-background:new    ;}
	.st1{fill:#5E5F5F;}
</style>
<g class="st0">
	<path class="st1" d="M130,143.6c-2,0-3.9-0.3-5.6-1c-1.7-0.7-3.2-1.5-4.5-2.7c-1.3-1.1-2.3-2.4-3-4c-0.7-1.5-1.1-3.2-1.1-4.9
		s0.4-3.4,1.1-4.9c0.7-1.5,1.7-2.9,3-4c1.3-1.1,2.8-2,4.5-2.7c1.7-0.7,3.6-1,5.6-1c2,0,3.8,0.3,5.5,1c1.7,0.7,3.2,1.5,4.5,2.7
		s2.3,2.4,3,4c0.7,1.5,1.1,3.2,1.1,4.9s-0.4,3.4-1.1,4.9c-0.7,1.5-1.7,2.9-3,4c-1.3,1.1-2.8,2-4.5,2.7
		C133.8,143.2,132,143.6,130,143.6z M122.6,170.4l22.4-25.3l19.9-26.7l6.6,5.9L150,148.9l-20.8,27.5L122.6,170.4z M130,136.4
		c1.1,0,2-0.5,2.7-1.6c0.7-1.1,1.1-2.3,1.1-3.8s-0.4-2.7-1.1-3.8c-0.7-1.1-1.6-1.6-2.7-1.6c-1.1,0-2,0.5-2.7,1.6
		c-0.7,1.1-1.1,2.3-1.1,3.8s0.4,2.7,1.1,3.8C128.1,135.9,129,136.4,130,136.4z M164,176.4c-2,0-3.9-0.3-5.6-1
		c-1.7-0.7-3.2-1.5-4.5-2.7c-1.3-1.1-2.3-2.4-3-4c-0.7-1.5-1.1-3.2-1.1-4.9s0.4-3.4,1.1-4.9c0.7-1.5,1.7-2.9,3-4
		c1.3-1.1,2.8-2,4.5-2.7c1.7-0.7,3.6-1,5.6-1c2,0,3.8,0.3,5.5,1c1.7,0.7,3.2,1.5,4.5,2.7c1.3,1.1,2.3,2.4,3,4
		c0.7,1.5,1.1,3.2,1.1,4.9s-0.4,3.4-1.1,4.9c-0.7,1.5-1.7,2.9-3,4c-1.3,1.1-2.8,2-4.5,2.7C167.8,176.1,166,176.4,164,176.4z
		 M164,169.3c1.1,0,2-0.5,2.7-1.6c0.7-1.1,1.1-2.3,1.1-3.8c0-1.5-0.4-2.7-1.1-3.8c-0.7-1.1-1.6-1.6-2.7-1.6c-1.1,0-2,0.5-2.7,1.6
		c-0.7,1.1-1.1,2.3-1.1,3.8c0,1.5,0.4,2.7,1.1,3.8C162.1,168.7,163,169.3,164,169.3z"/>
</g>
<g>
	<path class="st1" d="M190.1,140.7h58c-0.8-10.9-3.4-21.5-7.7-31.7c-5.1-12.1-12.4-22.9-21.7-32.2s-20.1-16.6-32.2-21.7
		c-10.3-4.4-21.1-6.9-32.2-7.7v58C172.5,108.3,186.8,122.6,190.1,140.7z"/>
	<path class="st1" d="M103.3,148.5c0-22.4,16.8-40.8,38.4-43.4V47.2c-11.8,0.6-23.2,3.2-34.1,7.8c-12.1,5.1-22.9,12.4-32.2,21.7
		s-16.6,20.1-21.7,32.2c-5.3,12.5-8,25.8-8,39.5s2.7,27,8,39.5c1.9,4.5,4.1,8.8,6.6,12.9l47.4-33.3
		C104.9,161.8,103.3,155.3,103.3,148.5z"/>
	<path class="st1" d="M147,192.2c-12.8,0-24.3-5.5-32.3-14.2l-47.3,33.2c2.5,3.1,5.1,6.1,8,8.9c9.3,9.3,20.1,16.6,32.2,21.7
		c12.5,5.3,25.8,8,39.5,8c13.1,0,25.9-2.5,37.9-7.4L160.8,190C156.5,191.4,151.9,192.2,147,192.2z"/>
	<path class="st1" d="M172.1,184.3l24.2,52.7c8.2-4.6,15.7-10.2,22.4-16.9c9.3-9.3,16.6-20.1,21.7-32.2c4.7-11,7.3-22.7,7.9-34.7
		h-57.8C189.1,166.1,182.2,177.3,172.1,184.3z"/>
</g>
</svg>
