<?xml version="1.0" encoding="utf-8"?>
<!-- Generator: Adobe Illustrator 22.1.0, SVG Export Plug-In . SVG Version: 6.00 Build 0)  -->
<svg version="1.1" id="Layer_1" xmlns="http://www.w3.org/2000/svg" xmlns:xlink="http://www.w3.org/1999/xlink" x="0px" y="0px"
	 viewBox="0 0 288 288" style="enable-background:new 0 0 288 288;" xml:space="preserve">
<style type="text/css">
	.st0{fill:#FFFFFF;}
	.st1{font-family:'Raleway-Black';}
	.st2{font-size:79.274px;}
</style>
<g>
	<text transform="matrix(1 0 0 1 96.1025 180.5985)" class="st0 st1 st2">%</text>
	<g>
		<path class="st0" d="M172.9,145.7h58c-0.8-10.9-3.4-21.5-7.7-31.7c-5.1-12.1-12.4-22.9-21.7-32.2s-20.1-16.6-32.2-21.7
			c-10.3-4.4-21.1-6.9-32.2-7.7v58C155.3,113.3,169.6,127.6,172.9,145.7z"/>
		<path class="st0" d="M86.1,153.5c0-22.4,16.8-40.8,38.4-43.4V52.2c-11.8,0.6-23.2,3.2-34.1,7.8c-12.1,5.1-22.9,12.4-32.2,21.7
			c-9.3,9.3-16.6,20.1-21.7,32.2c-5.3,12.5-8,25.8-8,39.5s2.7,27,8,39.5c1.9,4.5,4.1,8.8,6.6,12.9l47.4-33.3
			C87.7,166.8,86.1,160.3,86.1,153.5z"/>
		<path class="st0" d="M129.8,197.2c-12.8,0-24.3-5.5-32.3-14.2l-47.3,33.2c2.5,3.1,5.1,6.1,8,8.9c9.3,9.3,20.1,16.6,32.2,21.7
			c12.5,5.3,25.8,8,39.5,8c13.1,0,25.9-2.5,37.9-7.4L143.6,195C139.3,196.4,134.7,197.2,129.8,197.2z"/>
		<path class="st0" d="M154.9,189.3l24.2,52.7c8.2-4.6,15.7-10.2,22.4-16.9c9.3-9.3,16.6-20.1,21.7-32.2c4.7-11,7.3-22.7,7.9-34.7
			h-57.8C171.9,171.1,165,182.3,154.9,189.3z"/>
	</g>
</g>
</svg>
