<?xml version="1.0" encoding="utf-8"?>
<!-- Generator: Adobe Illustrator 22.1.0, SVG Export Plug-In . SVG Version: 6.00 Build 0)  -->
<svg version="1.1" id="Layer_1" xmlns="http://www.w3.org/2000/svg" xmlns:xlink="http://www.w3.org/1999/xlink" x="0px" y="0px"
	 viewBox="0 0 275.3 285.8" style="enable-background:new 0 0 275.3 285.8;" xml:space="preserve">
<style type="text/css">
	.st0{fill:#FFFFFF;}
</style>
<g>
	<g>
		<path class="st0" d="M181.6,57c-1,28.8-1,28.8-1,28.8c-36.3,0.5-29.6-5.8-30.2,25.7h31.5v27.1h-30.8v78.6h-30.8V138H92.5v-25.9
			h28.1C116.5,50.4,150.8,56.9,181.6,57z"/>
	</g>
	<g>
		<path class="st0" d="M216,285.7h-157C26.5,285.7,0,259.2,0,226.6V58.8C0,26.2,26.5-0.3,59.1-0.3h157c32.6,0,59.1,26.5,59.1,59.1
			v167.8C275.1,259.2,248.6,285.7,216,285.7z M59.1,26.8c-17.6,0-32,14.3-32,32v167.8c0,17.6,14.3,32,32,32h157
			c17.6,0,32-14.3,32-32V58.8c0-17.6-14.3-32-32-32H59.1z"/>
	</g>
</g>
</svg>
