<?xml version="1.0" encoding="utf-8"?>
<!-- Generator: Adobe Illustrator 22.1.0, SVG Export Plug-In . SVG Version: 6.00 Build 0)  -->
<svg version="1.1" id="Layer_1" xmlns="http://www.w3.org/2000/svg" xmlns:xlink="http://www.w3.org/1999/xlink" x="0px" y="0px"
	 viewBox="0 0 275.3 285.8" style="enable-background:new 0 0 275.3 285.8;" xml:space="preserve">
<style type="text/css">
	.st0{fill:#FFFFFF;}
</style>
<g>
	<g>
		<path class="st0" d="M215.3,285.7h-157c-32.6,0-59.1-26.5-59.1-59.1V58.8c0-32.6,26.5-59.1,59.1-59.1h157
			c32.6,0,59.1,26.5,59.1,59.1v167.8C274.3,259.2,247.8,285.7,215.3,285.7z M58.3,26.8c-17.6,0-32,14.3-32,32v167.8
			c0,17.6,14.3,32,32,32h157c17.6,0,32-14.3,32-32V58.8c0-17.6-14.3-32-32-32H58.3z"/>
	</g>
	<g>
		<g>
			<path class="st0" d="M59.6,132.8V196c0,12.9,10.5,23.4,23.4,23.4h107.4c12.9,0,23.4-10.5,23.4-23.4v-62.8l-32.2-0.1
				c3,80.7-100.6,65.8-91.1-0.2L59.6,132.8z"/>
		</g>
		<g>
			<circle class="st0" cx="136.1" cy="142.4" r="28.2"/>
		</g>
		<g>
			<g>
				<path class="st0" d="M190.5,66H83.1c-12.9,0-23.4,10.5-23.4,23.4V116l40.7-0.1c14.8-25.6,57.9-25.8,74.1-0.1l39.5-0.1V89.4
					C213.9,76.5,203.4,66,190.5,66z M200.8,95.2c0,2.7-2.2,5-5,5h-12.2c-2.7,0-5-2.2-5-5V83c0-2.7,2.2-5,5-5h12.2c2.7,0,5,2.2,5,5
					V95.2z"/>
			</g>
		</g>
	</g>
</g>
</svg>
