<?xml version="1.0" encoding="utf-8"?>
<!-- Generator: Adobe Illustrator 22.1.0, SVG Export Plug-In . SVG Version: 6.00 Build 0)  -->
<svg version="1.1" id="Layer_1" xmlns="http://www.w3.org/2000/svg" xmlns:xlink="http://www.w3.org/1999/xlink" x="0px" y="0px"
	 viewBox="0 0 288 288" style="enable-background:new 0 0 288 288;" xml:space="preserve">
<style type="text/css">
	.st0{fill:#5E5F5F;}
</style>
<g>
	<path class="st0" d="M185.4,101.7c-0.5-0.7-2.1-1.9-4.7-3.5c-2.6-1.6-5.9-3.4-9.9-5.2c-4-1.9-8.5-3.7-13.4-5.4
		c-4.9-1.7-9.9-2.9-14.9-3.6v36.5l8.6,2.1c9.1,2.5,17.4,5.2,24.7,8.2c7.3,3,13.6,6.6,18.7,11c5.1,4.4,9,9.7,11.8,16
		s4.2,13.8,4.2,22.6c0,10.2-1.8,18.9-5.4,26.1c-3.6,7.2-8.4,13-14.4,17.6s-12.9,8-20.7,10.3s-16,3.7-24.6,4v31.2h-18.5v-31.4
		c-12.4-1.1-24.6-3.6-36.7-7.5s-23-9.1-32.6-15.6l19.3-38.4c0.7,0.9,2.6,2.4,5.8,4.4c3.1,2.1,7.1,4.2,12,6.4
		c4.8,2.2,10.3,4.4,16.4,6.4c6.1,2.1,12.4,3.5,18.8,4.4v-35.7l-12.9-3.8c-8.8-2.7-16.4-5.6-22.8-8.7c-6.4-3.1-11.8-6.8-16-10.9
		c-4.2-4.1-7.3-8.9-9.4-14.2c-2.1-5.4-3.1-11.6-3.1-18.8c0-9.3,1.6-17.6,4.8-24.9c3.2-7.3,7.6-13.5,13-18.7
		c5.5-5.2,11.9-9.3,19.3-12.2c7.4-3,15.4-4.9,24-5.8v-27h18.5v27.1c11.6,1.1,22.6,3.7,32.8,7.8s19.1,8.3,26.6,12.6L185.4,101.7z
		 M111,99.2c0,4.5,1.6,8,4.7,10.6c3.1,2.6,7.8,4.9,14.1,6.9v-33C117.2,84.7,111,89.9,111,99.2z M163.1,184.7c0-4.7-1.9-8.3-5.6-10.9
		c-3.8-2.6-8.8-5-15-7.1v32.2C156.2,198.4,163.1,193.6,163.1,184.7z"/>
</g>
</svg>
