<?xml version="1.0" encoding="utf-8"?>
<!-- Generator: Adobe Illustrator 22.1.0, SVG Export Plug-In . SVG Version: 6.00 Build 0)  -->
<svg version="1.1" id="Layer_1" xmlns="http://www.w3.org/2000/svg" xmlns:xlink="http://www.w3.org/1999/xlink" x="0px" y="0px"
	 viewBox="0 0 288 288" style="enable-background:new 0 0 288 288;" xml:space="preserve">
<style type="text/css">
	.st0{fill:#FFFFFF;}
</style>
<g>
	<path class="st0" d="M126.7,212c-0.2,2.1-0.2,4-0.3,5.9C126.5,216,126.5,214,126.7,212z"/>
	<path class="st0" d="M195.2,59.8C119.3,97.4,78.4,146,88.2,176.3c1.9,5.9,7.6,16.9,29.1,26.2c3.6-9.5,9.1-18.1,16.2-25.5
		c0.8-0.8,1.8-1.2,2.9-1.2c0.8,0,1.7,0.3,2.4,0.8c1.6,1.2,2.1,3.4,1.1,5.1c-4.2,7.6-7,15.9-8.4,24.4l-0.1,4.1
		c18.7,10.3,30,8.3,35.3,6.5C196.5,206.6,210.4,144.3,195.2,59.8z"/>
	<path class="st0" d="M121,204.1c0,0.1-0.1,0.2-0.1,0.2c-2.7,7.3-3.8,13.9-4.3,19c-0.1,0.7-0.1,1.4-0.1,2.1c3.5,0.7,7,1.5,10.5,2.2
		c-0.3-2.8-0.6-6.1-0.5-9.9c0-1.9,0.1-3.8,0.3-5.9c0.1-1.3,0.3-2.7,0.5-4.1c0.1-0.8,0.2-1.5,0.3-2.3c1.8-11.3,5.8-20,8.9-25.7
		C132,184.4,125.4,192.4,121,204.1z"/>
</g>
</svg>
