<?xml version="1.0" encoding="utf-8"?>
<!-- Generator: Adobe Illustrator 22.1.0, SVG Export Plug-In . SVG Version: 6.00 Build 0)  -->
<svg version="1.1" id="Layer_1" xmlns="http://www.w3.org/2000/svg" xmlns:xlink="http://www.w3.org/1999/xlink" x="0px" y="0px"
	 viewBox="0 0 275.3 285.8" style="enable-background:new 0 0 275.3 285.8;" xml:space="preserve">
<style type="text/css">
	.st0{fill:#FFFFFF;}
</style>
<g>
	<g>
		<g>
			<path class="st0" d="M73.1,73.2c24.7,25.1,49.3,50.1,74.4,75.5c-3.1,3-6.2,5.8-9.2,8.8c-10.7,10.6-21.2,21.2-31.9,31.8
				c-10,9.9-20.1,19.8-30,29.7c-1.1,1.1-1.9,1-2.9,0.2c-2-1.8-3.5-3.9-3.5-6.8c0-43.9,0-87.8,0-131.7C69.9,77.8,71.1,75.5,73.1,73.2
				z"/>
		</g>
		<g>
			<path class="st0" d="M80.1,71.6c30.7,17.2,61.3,34.3,91.9,51.5c-7.1,7.1-14.1,14.1-21.2,21.2c-23.6-24-47.2-48-70.9-72.1
				C79.9,72,80,71.8,80.1,71.6z"/>
		</g>
		<g>
			<path class="st0" d="M87.3,216c21.3-21.1,42.5-42.2,63.3-62.8c6.5,5.9,12.8,11.8,19.7,18.1c-28,15.3-55.3,30.3-82.6,45.2
				C87.6,216.4,87.4,216.2,87.3,216z"/>
		</g>
		<g>
			<path class="st0" d="M174.9,168.7c-6.9-6.6-13.4-13-20.1-19.4c0.8-0.9,1.1-1.4,1.6-1.9c6.5-6.5,13.1-13,19.6-19.6
				c1.1-1.2,1.9-1.6,3.6-0.6c7.8,4.5,15.7,8.8,23.6,13.2c0.4,0.2,0.8,0.5,1.2,0.8c5.2,3.6,4.5,7.7,0,10.9c-2.5,1.8-5.3,3.3-8.1,4.9
				C189.1,161,181.9,164.9,174.9,168.7z"/>
		</g>
	</g>
	<g>
		<path class="st0" d="M217.5,288.7h-157c-32.6,0-59.1-26.5-59.1-59.1V61.8c0-32.6,26.5-59.1,59.1-59.1h157
			c32.6,0,59.1,26.5,59.1,59.1v167.8C276.5,262.2,250,288.7,217.5,288.7z M60.5,29.8c-17.6,0-32,14.3-32,32v167.8
			c0,17.6,14.3,32,32,32h157c17.6,0,32-14.3,32-32V61.8c0-17.6-14.3-32-32-32H60.5z"/>
	</g>
</g>
</svg>
