<?xml version="1.0" encoding="utf-8"?>
<!-- Generator: Adobe Illustrator 22.1.0, SVG Export Plug-In . SVG Version: 6.00 Build 0)  -->
<svg version="1.1" id="Layer_1" xmlns="http://www.w3.org/2000/svg" xmlns:xlink="http://www.w3.org/1999/xlink" x="0px" y="0px"
	 viewBox="0 0 275.3 285.8" style="enable-background:new 0 0 275.3 285.8;" xml:space="preserve">
<style type="text/css">
	.st0{fill:#FFFFFF;}
</style>
<g>
	<g>
		<path class="st0" d="M215.2,78.8l-20.8,8.8c-24-24-64.7-3.2-58.3,30.2c-24-1.1-46.7-11.1-67.4-34.1c-9,14.1-7.1,29,8.1,45.1
			c-4.3-0.2-9.1-1.3-14.1-4.4c1.8,26.5,14.3,27.9,25.4,32.7c-4.6,0.9-9.2,1.5-13.7,1.7c10.2,15.9,20,22.1,29.6,22.7
			c-12.5,10.7-28.9,14.5-47.9,13.9c98.1,47.8,151.1-31,146-84.7c8.4-4.9,14.3-10.8,18-17.4c-6.4,2.5-12.3,4.2-17.6,5.1
			C210,91.7,215.2,85.2,215.2,78.8z"/>
	</g>
	<g>
		<path class="st0" d="M216.7,286.7h-157c-32.6,0-59.1-26.5-59.1-59.1V59.8c0-32.6,26.5-59.1,59.1-59.1h157
			c32.6,0,59.1,26.5,59.1,59.1v167.8C275.7,260.2,249.2,286.7,216.7,286.7z M59.7,27.8c-17.6,0-32,14.3-32,32v167.8
			c0,17.6,14.3,32,32,32h157c17.6,0,32-14.3,32-32V59.8c0-17.6-14.3-32-32-32H59.7z"/>
	</g>
</g>
</svg>
