<?xml version="1.0" encoding="utf-8"?>
<!-- Generator: Adobe Illustrator 22.1.0, SVG Export Plug-In . SVG Version: 6.00 Build 0)  -->
<svg version="1.1" id="Layer_1" xmlns="http://www.w3.org/2000/svg" xmlns:xlink="http://www.w3.org/1999/xlink" x="0px" y="0px"
	 viewBox="0 0 288 288" style="enable-background:new 0 0 288 288;" xml:space="preserve">
<style type="text/css">
	.st0{fill:#D3485F;}
</style>
<g>
	<g>
		<path class="st0" d="M231.3,252.1c-5.3,0-10.6-2-14.6-6.1L46.4,75.8c-8.1-8.1-8.1-21.2,0-29.3c8.1-8.1,21.2-8.1,29.3,0
			l170.3,170.3c8.1,8.1,8.1,21.2,0,29.3C241.9,250.1,236.6,252.1,231.3,252.1z"/>
	</g>
	<g>
		<path class="st0" d="M61.1,252.1c-5.3,0-10.6-2-14.6-6.1c-8.1-8.1-8.1-21.2,0-29.3L216.7,46.6c8.1-8.1,21.2-8.1,29.3,0
			c8.1,8.1,8.1,21.2,0,29.3L75.7,246.1C71.6,250.1,66.4,252.1,61.1,252.1z"/>
	</g>
</g>
</svg>
